{
    "asset" : {
        "generator" : "Khronos glTF Blender I/O v1.8.19",
        "version" : "2.0"
    },
    "scene" : 0,
    "scenes" : [
        {
            "name" : "Scene",
            "nodes" : [
                0,
                1
            ]
        }
    ],
    "nodes" : [
        {
            "mesh" : 0,
            "name" : "Cylinder.002",
            "translation" : [
                0.05642460659146309,
                0.7907838821411133,
                0.006355860270559788
            ]
        },
        {
            "mesh" : 1,
            "name" : "Cylinder.003",
            "translation" : [
                0.1245073676109314,
                0.8869346380233765,
                0.05984855070710182
            ]
        }
    ],
    "meshes" : [
        {
            "name" : "Cylinder.004",
            "primitives" : [
                {
                    "attributes" : {
                        "POSITION" : 0,
                        "NORMAL" : 1,
                        "TEXCOORD_0" : 2
                    },
                    "indices" : 3
                }
            ]
        },
        {
            "name" : "Cylinder.005",
            "primitives" : [
                {
                    "attributes" : {
                        "POSITION" : 4,
                        "NORMAL" : 5,
                        "TEXCOORD_0" : 6
                    },
                    "indices" : 7
                }
            ]
        }
    ],
    "accessors" : [
        {
            "bufferView" : 0,
            "componentType" : 5126,
            "count" : 244,
            "max" : [
                0.1954217106103897,
                0.20523875951766968,
                0.19009046256542206
            ],
            "min" : [
                -0.2656179666519165,
                -0.3045412302017212,
                -0.24317096173763275
            ],
            "type" : "VEC3"
        },
        {
            "bufferView" : 1,
            "componentType" : 5126,
            "count" : 244,
            "type" : "VEC3"
        },
        {
            "bufferView" : 2,
            "componentType" : 5126,
            "count" : 244,
            "type" : "VEC2"
        },
        {
            "bufferView" : 3,
            "componentType" : 5123,
            "count" : 780,
            "type" : "SCALAR"
        },
        {
            "bufferView" : 4,
            "componentType" : 5126,
            "count" : 140,
            "max" : [
                0.06703317165374756,
                0.03507310152053833,
                0.05850457772612572
            ],
            "min" : [
                -0.05407935380935669,
                -0.035074055194854736,
                -0.07566410303115845
            ],
            "type" : "VEC3"
        },
        {
            "bufferView" : 5,
            "componentType" : 5126,
            "count" : 140,
            "type" : "VEC3"
        },
        {
            "bufferView" : 6,
            "componentType" : 5126,
            "count" : 140,
            "type" : "VEC2"
        },
        {
            "bufferView" : 7,
            "componentType" : 5123,
            "count" : 396,
            "type" : "SCALAR"
        }
    ],
    "bufferViews" : [
        {
            "buffer" : 0,
            "byteLength" : 2928,
            "byteOffset" : 0
        },
        {
            "buffer" : 0,
            "byteLength" : 2928,
            "byteOffset" : 2928
        },
        {
            "buffer" : 0,
            "byteLength" : 1952,
            "byteOffset" : 5856
        },
        {
            "buffer" : 0,
            "byteLength" : 1560,
            "byteOffset" : 7808
        },
        {
            "buffer" : 0,
            "byteLength" : 1680,
            "byteOffset" : 9368
        },
        {
            "buffer" : 0,
            "byteLength" : 1680,
            "byteOffset" : 11048
        },
        {
            "buffer" : 0,
            "byteLength" : 1120,
            "byteOffset" : 12728
        },
        {
            "buffer" : 0,
            "byteLength" : 792,
            "byteOffset" : 13848
        }
    ],
    "buffers" : [
        {
            "byteLength" : 14640,
            "uri" : "NUOCTANGLUC.bin"
        }
    ]
}
