{
    "asset" : {
        "generator" : "Khronos glTF Blender I/O v1.8.19",
        "version" : "2.0"
    },
    "scene" : 0,
    "scenes" : [
        {
            "name" : "Scene",
            "nodes" : [
                0,
                1,
                2
            ]
        }
    ],
    "nodes" : [
        {
            "mesh" : 0,
            "name" : "Cylinder.004",
            "translation" : [
                1.048295259475708,
                -0.07961411774158478,
                -3.3216936588287354
            ]
        },
        {
            "mesh" : 1,
            "name" : "Cube"
        },
        {
            "mesh" : 2,
            "name" : "Cube.001",
            "rotation" : [
                0,
                1,
                0,
                -1.6292068494294654e-07
            ],
            "translation" : [
                1.0248627662658691,
                -0.057500336319208145,
                -3.3161749839782715
            ]
        }
    ],
    "meshes" : [
        {
            "name" : "Cylinder.011",
            "primitives" : [
                {
                    "attributes" : {
                        "POSITION" : 0,
                        "NORMAL" : 1,
                        "TEXCOORD_0" : 2
                    },
                    "indices" : 3
                }
            ]
        },
        {
            "name" : "Cube.002",
            "primitives" : [
                {
                    "attributes" : {
                        "POSITION" : 4,
                        "NORMAL" : 5,
                        "TEXCOORD_0" : 6
                    },
                    "indices" : 7
                }
            ]
        },
        {
            "name" : "Cube.001",
            "primitives" : [
                {
                    "attributes" : {
                        "POSITION" : 8,
                        "NORMAL" : 9,
                        "TEXCOORD_0" : 10
                    },
                    "indices" : 11
                }
            ]
        }
    ],
    "accessors" : [
        {
            "bufferView" : 0,
            "componentType" : 5126,
            "count" : 364,
            "max" : [
                0.053112417459487915,
                0.2081936001777649,
                0.20844754576683044
            ],
            "min" : [
                -0.04216071963310242,
                -0.17263716459274292,
                -0.19995860755443573
            ],
            "type" : "VEC3"
        },
        {
            "bufferView" : 1,
            "componentType" : 5126,
            "count" : 364,
            "type" : "VEC3"
        },
        {
            "bufferView" : 2,
            "componentType" : 5126,
            "count" : 364,
            "type" : "VEC2"
        },
        {
            "bufferView" : 3,
            "componentType" : 5123,
            "count" : 1110,
            "type" : "SCALAR"
        },
        {
            "bufferView" : 4,
            "componentType" : 5126,
            "count" : 74,
            "max" : [
                1.0753155946731567,
                0.030492015182971954,
                -3.230372428894043
            ],
            "min" : [
                1.0601141452789307,
                -0.13955748081207275,
                -3.40265154838562
            ],
            "type" : "VEC3"
        },
        {
            "bufferView" : 5,
            "componentType" : 5126,
            "count" : 74,
            "type" : "VEC3"
        },
        {
            "bufferView" : 6,
            "componentType" : 5126,
            "count" : 74,
            "type" : "VEC2"
        },
        {
            "bufferView" : 7,
            "componentType" : 5123,
            "count" : 204,
            "type" : "SCALAR"
        },
        {
            "bufferView" : 8,
            "componentType" : 5126,
            "count" : 74,
            "max" : [
                0.00760042667388916,
                0.0879923552274704,
                0.08580255508422852
            ],
            "min" : [
                -0.007601022720336914,
                -0.08205714821815491,
                -0.08647656440734863
            ],
            "type" : "VEC3"
        },
        {
            "bufferView" : 9,
            "componentType" : 5126,
            "count" : 74,
            "type" : "VEC3"
        },
        {
            "bufferView" : 10,
            "componentType" : 5126,
            "count" : 74,
            "type" : "VEC2"
        },
        {
            "bufferView" : 11,
            "componentType" : 5123,
            "count" : 204,
            "type" : "SCALAR"
        }
    ],
    "bufferViews" : [
        {
            "buffer" : 0,
            "byteLength" : 4368,
            "byteOffset" : 0
        },
        {
            "buffer" : 0,
            "byteLength" : 4368,
            "byteOffset" : 4368
        },
        {
            "buffer" : 0,
            "byteLength" : 2912,
            "byteOffset" : 8736
        },
        {
            "buffer" : 0,
            "byteLength" : 2220,
            "byteOffset" : 11648
        },
        {
            "buffer" : 0,
            "byteLength" : 888,
            "byteOffset" : 13868
        },
        {
            "buffer" : 0,
            "byteLength" : 888,
            "byteOffset" : 14756
        },
        {
            "buffer" : 0,
            "byteLength" : 592,
            "byteOffset" : 15644
        },
        {
            "buffer" : 0,
            "byteLength" : 408,
            "byteOffset" : 16236
        },
        {
            "buffer" : 0,
            "byteLength" : 888,
            "byteOffset" : 16644
        },
        {
            "buffer" : 0,
            "byteLength" : 888,
            "byteOffset" : 17532
        },
        {
            "buffer" : 0,
            "byteLength" : 592,
            "byteOffset" : 18420
        },
        {
            "buffer" : 0,
            "byteLength" : 408,
            "byteOffset" : 19012
        }
    ],
    "buffers" : [
        {
            "byteLength" : 19420,
            "uri" : "coin.bin"
        }
    ]
}
